<?xml version="1.0" standalone="no"?>
<!DOCTYPE svg PUBLIC "-//W3C//DTD SVG 20010904//EN"
 "http://www.w3.org/TR/2001/REC-SVG-20010904/DTD/svg10.dtd">
<svg version="1.0" xmlns="http://www.w3.org/2000/svg"
 width="512.000000pt" height="512.000000pt" viewBox="0 0 512.000000 512.000000"
 preserveAspectRatio="xMidYMid meet">
<metadata>
Created by potrace 1.11, written by Peter Selinger 2001-2013
</metadata>
<g transform="translate(0.000000,512.000000) scale(0.100000,-0.100000)"
fill="#000000" stroke="none">
<path d="M2470 4521 c-25 -4 -95 -33 -160 -66 -179 -93 -260 -185 -317 -357
-27 -83 -23 -259 7 -333 105 -257 302 -399 565 -407 83 -3 213 33 274 75 125
85 250 275 279 422 7 40 9 190 2 200 -4 6 -7 17 -7 25 0 26 -54 152 -91 210
-92 146 -205 213 -384 225 -46 4 -92 7 -103 9 -11 2 -40 0 -65 -3z m166 -79
c77 -22 165 -68 221 -114 136 -114 163 -273 90 -533 -5 -16 -46 -89 -59 -105
-41 -48 -162 -111 -243 -126 -168 -32 -307 8 -422 123 -138 137 -170 331 -85
512 36 78 116 151 231 211 87 45 102 50 157 48 33 0 83 -8 110 -16z"/>
<path d="M2867 3223 c-2 -2 -220 -10 -502 -19 -82 -2 -262 -7 -399 -9 -137 -2
-253 -8 -258 -13 -5 -5 -9 -100 -10 -211 -1 -164 2 -205 13 -212 8 -5 83 -9
167 -10 139 -1 217 -3 241 -7 14 -3 5 -631 -14 -1092 -9 -205 -17 -467 -17
-512 1 -56 25 -50 -208 -49 -158 1 -213 -12 -226 -53 -11 -35 -6 -408 7 -437
15 -37 38 -40 289 -44 118 -2 404 -6 635 -10 710 -12 812 -10 835 10 27 24 36
61 34 135 -1 36 -3 131 -4 211 -3 134 -5 147 -26 172 -12 14 -30 26 -41 26
-48 1 -206 -1 -275 -3 -43 -1 -79 0 -80 3 0 3 -2 85 -3 181 -1 96 -6 380 -9
630 -4 250 -9 639 -11 863 -3 225 -7 417 -10 428 -4 11 -16 19 -28 20 -12 0
-39 2 -60 3 -21 1 -39 1 -40 -1z m-127 -103 c0 -3 38 -4 85 -3 75 3 85 1 86
-15 1 -29 -3 -343 -6 -412 -7 -155 -18 -451 -19 -522 -1 -43 -5 -80 -8 -84 -4
-3 -3 -17 2 -30 5 -13 6 -24 2 -24 -8 0 -10 -102 -12 -653 -2 -416 -3 -409 50
-429 14 -5 93 -12 175 -15 83 -2 161 -5 175 -6 25 -2 25 -3 27 -100 1 -53 -1
-97 -5 -98 -4 0 -205 -2 -447 -4 -242 -2 -472 -5 -510 -6 -39 -2 -76 1 -83 5
-7 4 -12 3 -12 -2 0 -6 -14 -7 -34 -2 -19 4 -40 4 -47 0 -7 -5 -23 -4 -36 1
-13 5 -22 6 -20 1 7 -9 -165 -9 -180 1 -6 4 -14 4 -17 -1 -2 -4 -26 -8 -53 -7
l-48 0 -1 121 c-1 82 2 121 10 122 6 1 92 3 191 6 241 7 224 -13 219 258 -2
112 -6 514 -8 895 -2 380 -7 697 -11 703 -5 8 -65 9 -215 4 l-208 -6 0 73 c0
41 0 108 -1 149 -2 41 -2 79 -2 84 1 8 961 5 961 -4z"/>
</g>
</svg>
